<mxfile host="Electron" modified="2024-03-28T16:23:36.335Z" agent="Mozilla/5.0 (Macintosh; Intel Mac OS X 10_15_7) AppleWebKit/537.36 (KHTML, like Gecko) draw.io/24.1.0 Chrome/120.0.6099.109 Electron/28.1.0 Safari/537.36" etag="OoIGxmD6Zw2sGU8jGPcS" version="24.1.0" type="device">
  <diagram name="Page-1" id="460b9VJ3DY00cZS0Tk84">
    <mxGraphModel dx="432" dy="604" grid="1" gridSize="10" guides="1" tooltips="1" connect="1" arrows="1" fold="1" page="1" pageScale="1" pageWidth="827" pageHeight="1169" math="0" shadow="0">
      <root>
        <mxCell id="0" />
        <mxCell id="1" parent="0" />
        <mxCell id="BKgjimnzg8z-WEInp145-22" value="" style="rounded=1;whiteSpace=wrap;html=1;arcSize=10;" parent="1" vertex="1">
          <mxGeometry x="120" y="80" width="250" height="110" as="geometry" />
        </mxCell>
        <mxCell id="BKgjimnzg8z-WEInp145-5" value="" style="rounded=1;whiteSpace=wrap;html=1;arcSize=15;dashed=1;fillColor=#f8cecc;strokeColor=#b85450;" parent="1" vertex="1">
          <mxGeometry x="135" y="140" width="220" height="40" as="geometry" />
        </mxCell>
        <mxCell id="BKgjimnzg8z-WEInp145-7" value="Runtime" style="text;html=1;strokeColor=none;fillColor=none;align=center;verticalAlign=middle;whiteSpace=wrap;rounded=0;fontSize=14;fontFamily=Computer Modern;" parent="1" vertex="1">
          <mxGeometry x="215" y="90" width="60" height="30" as="geometry" />
        </mxCell>
        <mxCell id="fuAmOqIK-pXtIhWq-SCb-2" value="" style="rounded=0;whiteSpace=wrap;html=1;container=0;strokeColor=none;fillColor=none;" vertex="1" parent="1">
          <mxGeometry x="135" y="210" width="70" height="30" as="geometry" />
        </mxCell>
        <mxCell id="BKgjimnzg8z-WEInp145-15" value="WebAssembly Instance" style="text;html=1;strokeColor=none;fillColor=none;align=center;verticalAlign=middle;whiteSpace=wrap;rounded=0;fontSize=14;fontFamily=Computer Modern;fontColor=#b85450;" parent="1" vertex="1">
          <mxGeometry x="171.5" y="145" width="147" height="30" as="geometry" />
        </mxCell>
        <mxCell id="fuAmOqIK-pXtIhWq-SCb-7" value="" style="shape=image;verticalLabelPosition=bottom;labelBackgroundColor=default;verticalAlign=top;aspect=fixed;imageAspect=0;image=data:image/svg+xml,PHN2ZyB4bWxuczp4bGluaz0iaHR0cDovL3d3dy53My5vcmcvMTk5OS94bGluayIgeG1sbnM9Imh0dHA6Ly93d3cudzMub3JnLzIwMDAvc3ZnIiBoZWlnaHQ9IjEyOS41NjIiIHdpZHRoPSIxMDMuODc1IiB2ZXJzaW9uPSIxLjEiIHZpZXdCb3g9IjAgMCAxMDMuODc1IDEyOS41NjIiPiYjeGE7IDxnPiYjeGE7ICA8cmVjdCB5PSIwIiB4PSIwIiB3aWR0aD0iMTAzLjg3NSIgb3BhY2l0eT0iMCIgaGVpZ2h0PSIxMjkuNTYyIi8+JiN4YTsgIDxwYXRoIGZpbGw9IiNiODU0NTAiIGQ9Ik01MS45Mzc1IDEyOS41NjJDNTIuOTM3NSAxMjkuNTYyIDU0LjU2MjUgMTI5LjE4OCA1Ni4xMjUgMTI4LjMxMkM5MS42ODc1IDEwOC4zNzUgMTAzLjg3NSA5OS45Mzc1IDEwMy44NzUgNzcuMTI1TDEwMy44NzUgMjkuMzEyNUMxMDMuODc1IDIyLjc1IDEwMS4wNjIgMjAuNjg3NSA5NS43NSAxOC40Mzc1Qzg4LjM3NSAxNS4zNzUgNjQuNTYyNSA2LjgxMjUgNTcuMTg3NSA0LjI1QzU1LjUgMy42ODc1IDUzLjY4NzUgMy4zMTI1IDUxLjkzNzUgMy4zMTI1QzUwLjE4NzUgMy4zMTI1IDQ4LjM3NSAzLjgxMjUgNDYuNzUgNC4yNUMzOS4zNzUgNi4zNzUgMTUuNSAxNS40Mzc1IDguMTI1IDE4LjQzNzVDMi44NzUgMjAuNjI1IDAgMjIuNzUgMCAyOS4zMTI1TDAgNzcuMTI1QzAgOTkuOTM3NSAxMi4yNSAxMDguMzEyIDQ3Ljc1IDEyOC4zMTJDNDkuMzc1IDEyOS4xODggNTAuOTM3NSAxMjkuNTYyIDUxLjkzNzUgMTI5LjU2MlpNNTEuOTM3NSAxMTguMjVDNTAuOTM3NSAxMTguMjUgNDkuOTM3NSAxMTcuODc1IDQ4LjA2MjUgMTE2Ljc1QzE5LjE4NzUgOTkuMjUgOS45Mzc1IDk0LjEyNSA5LjkzNzUgNzQuODEyNUw5LjkzNzUgMzEuMjVDOS45Mzc1IDI5LjEyNSAxMC4zMTI1IDI4LjMxMjUgMTIuMDYyNSAyNy42MjVDMjEuNTYyNSAyMy44NzUgNDAgMTcuNjg3NSA0OS40Mzc1IDEzLjkzNzVDNTAuNDM3NSAxMy41IDUxLjI1IDEzLjM3NSA1MS45Mzc1IDEzLjM3NUM1Mi42MjUgMTMuMzc1IDUzLjQzNzUgMTMuNTYyNSA1NC40Mzc1IDEzLjkzNzVDNjMuODc1IDE3LjY4NzUgODIuMTg3NSAyNC4zMTI1IDkxLjg3NSAyNy42MjVDOTMuNTYyNSAyOC4yNSA5My45Mzc1IDI5LjEyNSA5My45Mzc1IDMxLjI1TDkzLjkzNzUgNzQuODEyNUM5My45Mzc1IDk0LjEyNSA4NC42ODc1IDk5LjE4NzUgNTUuODEyNSAxMTYuNzVDNTQgMTE3Ljg3NSA1Mi45Mzc1IDExOC4yNSA1MS45Mzc1IDExOC4yNVpNMzAuNjI1IDg5Ljg3NUMzMi4wNjI1IDg5Ljg3NSAzMy4zMTI1IDg5LjMxMjUgMzQuMjUgODguMzEyNUw1MS45Mzc1IDcwLjU2MjVMNjkuNzUgODguMzEyNUM3MC42ODc1IDg5LjI1IDcxLjg3NSA4OS44NzUgNzMuMzEyNSA4OS44NzVDNzYuMTI1IDg5Ljg3NSA3OC4zMTI1IDg3LjU2MjUgNzguMzEyNSA4NC44MTI1Qzc4LjMxMjUgODMuMzc1IDc3LjgxMjUgODIuMjUgNzYuODEyNSA4MS4yNUw1OS4wNjI1IDYzLjVMNzYuODc1IDQ1LjYyNUM3Ny45Mzc1IDQ0LjU2MjUgNzguMzc1IDQzLjUgNzguMzc1IDQyLjEyNUM3OC4zNzUgMzkuMzc1IDc2LjE4NzUgMzcuMTI1IDczLjM3NSAzNy4xMjVDNzIuMDYyNSAzNy4xMjUgNzEgMzcuNjI1IDY5LjkzNzUgMzguNjg3NUw1MS45Mzc1IDU2LjVMMzQuMTI1IDM4Ljc1QzMzLjE4NzUgMzcuNzUgMzIuMDYyNSAzNy4yNSAzMC42MjUgMzcuMjVDMjcuODc1IDM3LjI1IDI1LjYyNSAzOS40Mzc1IDI1LjYyNSA0Mi4xODc1QzI1LjYyNSA0My41NjI1IDI2LjE4NzUgNDQuNzUgMjcuMTI1IDQ1LjY4NzVMNDQuODc1IDYzLjVMMjcuMTI1IDgxLjMxMjVDMjYuMTg3NSA4Mi4yNSAyNS42MjUgODMuNDM3NSAyNS42MjUgODQuODEyNUMyNS42MjUgODcuNTYyNSAyNy44NzUgODkuODc1IDMwLjYyNSA4OS44NzVaIi8+JiN4YTsgPC9nPiYjeGE7PC9zdmc+;" vertex="1" parent="1">
          <mxGeometry x="164.4" y="153" width="11.2" height="14" as="geometry" />
        </mxCell>
        <mxCell id="fuAmOqIK-pXtIhWq-SCb-10" value="" style="shape=image;verticalLabelPosition=bottom;labelBackgroundColor=default;verticalAlign=top;aspect=fixed;imageAspect=0;image=data:image/svg+xml,PHN2ZyB4bWxuczp4bGluaz0iaHR0cDovL3d3dy53My5vcmcvMTk5OS94bGluayIgeG1sbnM9Imh0dHA6Ly93d3cudzMub3JnLzIwMDAvc3ZnIiBoZWlnaHQ9IjEyMy4zMTIiIHdpZHRoPSIxMjIuMTI1IiB2ZXJzaW9uPSIxLjEiIHZpZXdCb3g9IjAgMCAxMjIuMTI1IDEyMy4zMTIiPiYjeGE7IDxnPiYjeGE7ICA8cmVjdCB5PSIwIiB4PSIwIiB3aWR0aD0iMTIyLjEyNSIgb3BhY2l0eT0iMCIgaGVpZ2h0PSIxMjMuMzEyIi8+JiN4YTsgIDxwYXRoIGZpbGw9IiMwMDAwMDAiIGQ9Ik0wIDQ5Ljg3NUMwIDc3LjM3NSAyMi4zNzUgOTkuNzUgNDkuODc1IDk5Ljc1QzYwLjc1IDk5Ljc1IDcwLjY4NzUgOTYuMjUgNzguODc1IDkwLjM3NUwxMDkuNjI1IDEyMS4xODhDMTExLjA2MiAxMjIuNjI1IDExMi45MzggMTIzLjMxMiAxMTQuOTM4IDEyMy4zMTJDMTE5LjE4OCAxMjMuMzEyIDEyMi4xMjUgMTIwLjEyNSAxMjIuMTI1IDExNS45MzhDMTIyLjEyNSAxMTMuOTM4IDEyMS4zNzUgMTEyLjEyNSAxMjAuMDYyIDExMC44MTJMODkuNSA4MC4wNjI1Qzk1LjkzNzUgNzEuNjg3NSA5OS43NSA2MS4yNSA5OS43NSA0OS44NzVDOTkuNzUgMjIuMzc1IDc3LjM3NSAwIDQ5Ljg3NSAwQzIyLjM3NSAwIDAgMjIuMzc1IDAgNDkuODc1Wk0xMC42ODc1IDQ5Ljg3NUMxMC42ODc1IDI4LjI1IDI4LjI1IDEwLjY4NzUgNDkuODc1IDEwLjY4NzVDNzEuNSAxMC42ODc1IDg5LjA2MjUgMjguMjUgODkuMDYyNSA0OS44NzVDODkuMDYyNSA3MS41IDcxLjUgODkuMDYyNSA0OS44NzUgODkuMDYyNUMyOC4yNSA4OS4wNjI1IDEwLjY4NzUgNzEuNSAxMC42ODc1IDQ5Ljg3NVpNMzAuMTg3NSA0NS44NzVMNjkuODEyNSA0NS44NzVDNzIuMjUgNDUuODc1IDc0LjEyNSA0My45Mzc1IDc0LjEyNSA0MS41Qzc0LjEyNSAzOS4wNjI1IDcyLjI1IDM3LjEyNSA2OS44MTI1IDM3LjEyNUwzMC4xODc1IDM3LjEyNUMyNy42ODc1IDM3LjEyNSAyNS44MTI1IDM5LjA2MjUgMjUuODEyNSA0MS41QzI1LjgxMjUgNDMuOTM3NSAyNy42ODc1IDQ1Ljg3NSAzMC4xODc1IDQ1Ljg3NVpNMzAuMTg3NSA2Mi41NjI1TDU4LjkzNzUgNjIuNTYyNUM2MS4zNzUgNjIuNTYyNSA2My4zNzUgNjAuNjg3NSA2My4zNzUgNTguMjVDNjMuMzc1IDU1LjgxMjUgNjEuMzc1IDUzLjgxMjUgNTguOTM3NSA1My44MTI1TDMwLjE4NzUgNTMuODEyNUMyNy42ODc1IDUzLjgxMjUgMjUuODEyNSA1NS44MTI1IDI1LjgxMjUgNTguMjVDMjUuODEyNSA2MC42ODc1IDI3LjY4NzUgNjIuNTYyNSAzMC4xODc1IDYyLjU2MjVaIi8+JiN4YTsgPC9nPiYjeGE7PC9zdmc+;" vertex="1" parent="1">
          <mxGeometry x="201.11" y="98" width="13.89" height="14" as="geometry" />
        </mxCell>
      </root>
    </mxGraphModel>
  </diagram>
</mxfile>
